<?xml version="1.0" encoding="UTF-8"?>
<svg id="Layer_1" data-name="Layer 1" xmlns="http://www.w3.org/2000/svg" viewBox="0 0 841.89 350.46">
  <defs>
    <style>
      .cls-1 {
        fill: #c21807;
      }

      .cls-2 {
        fill: #fff;
      }
    </style>
  </defs>
  <path class="cls-1" d="M.54,96.09C.54,40.65,41.2,0,98.86,0s97.57,40.65,97.57,96.09v15.52H46.74c5.92,26.61,26.24,40.65,52.11,40.65,19.59,0,34-5.54,43.24-17.37h46.94c-13.68,34.74-46.94,57.29-90.18,57.29C41.2,192.19.54,151.53.54,96.09ZM149.86,76.5c-7.02-24.39-26.98-36.59-51-36.59s-43.98,12.57-51.01,36.59h102.01Z"/>
  <path class="cls-2" d="M428.19,183.87c-60.98,0-92.4-36.22-92.4-90.18S366.84,3.51,428.19,3.51h51.64v43.98h-51.64c-34.74,0-51.37,18.48-51.37,46.2s16.63,46.2,51.37,46.2h51.64v43.98h-51.64Z"/>
  <path class="cls-2" d="M748.95,3.51c60.98,0,92.4,36.22,92.4,90.18,0,53.96-31.05,90.18-92.4,90.18h-51.64s0-43.98,0-43.98h51.64c34.74,0,51.37-18.48,51.37-46.2,0-27.72-16.63-46.2-51.37-46.2h-51.64s0-43.98,0-43.98h51.64Z"/>
  <polyline class="cls-2" points="568.38 3.51 509.91 3.51 509.91 50.26 568.38 50.26 568.38 183.87 615.13 183.87 615.13 50.26 667.23 50.26 667.23 3.51 615.13 3.51"/>
  <rect class="cls-2" x="225.27" y="68.87" width="81.68" height="40.85"/>
  <g>
    <path class="cls-1" d="M607.85,244.48c3.94-2.11,8.43-3.17,13.49-3.17,5.88,0,11.21,1.45,15.97,4.35,4.76,2.9,8.53,7.02,11.31,12.37s4.16,11.54,4.16,18.58-1.39,13.28-4.16,18.71c-2.78,5.43-6.55,9.63-11.31,12.62-4.77,2.98-10.09,4.48-15.97,4.48-5.05,0-9.51-1.04-13.36-3.11s-6.98-4.68-9.38-7.83v42.64h-17.4v-101.68h17.4v9.94c2.23-3.15,5.32-5.78,9.26-7.89ZM632.47,265.86c-1.7-3.02-3.94-5.32-6.71-6.9-2.78-1.57-5.78-2.36-9.01-2.36s-6.11.81-8.89,2.42c-2.77,1.62-5.01,3.96-6.71,7.02-1.7,3.07-2.55,6.67-2.55,10.81s.85,7.75,2.55,10.81c1.7,3.07,3.94,5.41,6.71,7.02,2.78,1.62,5.74,2.42,8.89,2.42s6.23-.83,9.01-2.49c2.78-1.66,5.01-4.02,6.71-7.08,1.7-3.06,2.55-6.71,2.55-10.94s-.85-7.73-2.55-10.75Z"/>
    <path class="cls-1" d="M682.87,219.31v91.98h-17.4v-91.98h17.4Z"/>
    <path class="cls-1" d="M765.03,242.42v68.86h-17.52v-8.7c-2.24,2.98-5.16,5.32-8.77,7.02-3.6,1.7-7.52,2.55-11.74,2.55-5.39,0-10.15-1.14-14.3-3.42-4.14-2.28-7.4-5.63-9.76-10.07-2.36-4.43-3.55-9.72-3.55-15.85v-40.4h17.4v37.91c0,5.47,1.37,9.68,4.1,12.62,2.74,2.94,6.46,4.41,11.19,4.41s8.58-1.47,11.31-4.41c2.73-2.94,4.1-7.15,4.1-12.62v-37.91h17.52Z"/>
    <path class="cls-1" d="M793.37,309.36c-4.48-2.03-8.02-4.79-10.63-8.26-2.61-3.48-4.04-7.33-4.29-11.56h17.52c.33,2.65,1.64,4.85,3.92,6.59s5.12,2.61,8.52,2.61,5.9-.66,7.77-1.99c1.87-1.32,2.8-3.02,2.8-5.1,0-2.24-1.14-3.92-3.42-5.03s-5.91-2.34-10.88-3.67c-5.14-1.24-9.34-2.53-12.62-3.85-3.27-1.33-6.09-3.36-8.45-6.09-2.36-2.74-3.54-6.42-3.54-11.06,0-3.81,1.09-7.29,3.29-10.44,2.2-3.15,5.35-5.63,9.45-7.46,4.1-1.82,8.93-2.73,14.48-2.73,8.2,0,14.75,2.05,19.64,6.15,4.89,4.1,7.58,9.63,8.08,16.59h-16.66c-.25-2.74-1.39-4.91-3.42-6.53-2.03-1.62-4.74-2.42-8.14-2.42-3.15,0-5.57.58-7.27,1.74-1.7,1.16-2.55,2.78-2.55,4.85,0,2.32,1.16,4.08,3.48,5.28,2.32,1.2,5.92,2.42,10.81,3.67,4.97,1.24,9.07,2.53,12.31,3.85s6.03,3.38,8.39,6.15c2.36,2.78,3.58,6.45,3.67,11,0,3.98-1.1,7.54-3.3,10.69-2.2,3.15-5.34,5.62-9.45,7.4-4.1,1.78-8.88,2.67-14.36,2.67s-10.69-1.02-15.16-3.05Z"/>
  </g>
</svg>